<svg width="100" height="100" viewBox="0 0 100 100" fill="none" xmlns="http://www.w3.org/2000/svg">
<circle cx="50" cy="50" r="50" fill="#171717"/>
<path d="M42.7216 50.3352V69H32.3026V25.3636H42.3807V42.2812H42.7429C43.4815 40.2642 44.6889 38.6875 46.3651 37.5511C48.0554 36.4148 50.1222 35.8466 52.5653 35.8466C54.8665 35.8466 56.8693 36.358 58.5739 37.3807C60.2784 38.3892 61.5994 39.8168 62.5369 41.6634C63.4886 43.5099 63.9574 45.669 63.9432 48.1406V69H53.5241V50.1861C53.5384 48.3679 53.0838 46.9474 52.1605 45.9247C51.2372 44.902 49.9375 44.3906 48.2614 44.3906C47.1676 44.3906 46.2017 44.6321 45.3636 45.1151C44.5398 45.5838 43.8935 46.2585 43.4247 47.1392C42.9702 48.0199 42.7358 49.0852 42.7216 50.3352Z" fill="white"/>
<g clip-path="url(#clip0_52_9)">
<path d="M82.3499 37.8403C82.2264 36.7911 81.8995 35.776 81.3874 34.8519C80.8755 33.9256 80.1903 33.1062 79.3692 32.4384C78.5182 31.7443 77.5378 31.2261 76.485 30.914C75.0089 30.4727 73.4479 30.4464 71.9681 30.8357C71.6141 30.9288 71.2697 31.0444 70.9349 31.1824C70.7308 30.8833 70.5063 30.5977 70.2615 30.3255C69.2382 29.1879 67.9189 28.3532 66.4429 27.9119C65.38 27.5941 64.2891 27.4898 63.1952 27.6031C62.1387 27.7113 61.124 28.0179 60.1834 28.5129C59.2475 29.0033 58.4169 29.6725 57.7387 30.4827C57.0334 31.3254 56.5138 32.2888 56.1978 33.3457C55.8998 34.3427 55.7928 35.4425 55.881 36.6203C55.9553 37.6047 56.1664 38.6659 56.5096 39.7763C57.054 41.534 57.9478 43.4647 59.1617 45.5138C61.1731 48.9104 63.3948 51.5055 63.4901 51.6122L64.0636 52.2795C64.318 52.5741 64.7222 52.6949 65.0966 52.5883L65.9422 52.3453C66.0814 52.3054 69.3589 51.3576 72.9075 49.6232C75.0469 48.5765 76.8538 47.4532 78.2735 46.2827C79.1699 45.5428 79.9318 44.7725 80.5312 43.9895C81.2513 43.0535 81.7655 42.0754 82.0636 41.0784C82.3826 40.0223 82.477 38.9318 82.3499 37.8403V37.8403Z" fill="#FF1D32"/>
</g>
<defs>
<clipPath id="clip0_52_9">
<rect width="32" height="32" fill="white" transform="translate(57.2532 21.0875) rotate(16.6442)"/>
</clipPath>
</defs>
</svg>
