<svg width="31" height="61" viewBox="0 0 31 61" fill="none" xmlns="http://www.w3.org/2000/svg">
<path d="M0.122314 1.87762C0.122314 1.32534 0.57003 0.877625 1.12231 0.877625L8.47232 0.877625C9.0246 0.877625 9.47231 1.32534 9.47231 1.87763L9.47231 24.1026C9.47231 24.6549 9.92003 25.1026 10.4723 25.1026L18.5023 25.1026C19.0546 25.1026 19.5023 24.6549 19.5023 24.1026L19.5023 1.87763C19.5023 1.32534 19.95 0.877626 20.5023 0.877626L27.8523 0.877626C28.4046 0.877626 28.8523 1.32534 28.8523 1.87763L28.8523 59.3776C28.8523 59.9299 28.4046 60.3776 27.8523 60.3776L20.5023 60.3776C19.95 60.3776 19.5023 59.9299 19.5023 59.3776L19.5023 34.6026C19.5023 34.0503 19.0546 33.6026 18.5023 33.6026L10.4723 33.6026C9.92003 33.6026 9.47231 34.0503 9.47231 34.6026L9.47231 59.3776C9.47231 59.9299 9.0246 60.3776 8.47231 60.3776L1.12231 60.3776C0.570026 60.3776 0.122311 59.9299 0.122311 59.3776L0.122314 1.87762Z" fill="#4DB464"/>
<path d="M2.12231 1.87762C2.12231 1.32534 2.57003 0.877625 3.12231 0.877625L10.4723 0.877625C11.0246 0.877625 11.4723 1.32534 11.4723 1.87763L11.4723 24.1026C11.4723 24.6549 11.92 25.1026 12.4723 25.1026L20.5023 25.1026C21.0546 25.1026 21.5023 24.6549 21.5023 24.1026L21.5023 1.87763C21.5023 1.32534 21.95 0.877626 22.5023 0.877626L29.8523 0.877626C30.4046 0.877626 30.8523 1.32534 30.8523 1.87763L30.8523 59.3776C30.8523 59.9299 30.4046 60.3776 29.8523 60.3776L22.5023 60.3776C21.95 60.3776 21.5023 59.9299 21.5023 59.3776L21.5023 34.6026C21.5023 34.0503 21.0546 33.6026 20.5023 33.6026L12.4723 33.6026C11.92 33.6026 11.4723 34.0503 11.4723 34.6026L11.4723 59.3776C11.4723 59.9299 11.0246 60.3776 10.4723 60.3776L3.12231 60.3776C2.57003 60.3776 2.12231 59.9299 2.12231 59.3776L2.12231 1.87762Z" fill="#4EFF75"/>
</svg>
