<svg width="63" height="50" viewBox="0 0 63 50" fill="none" xmlns="http://www.w3.org/2000/svg">
<path d="M10.5455 28.8182V49H0.863636V2.45454H10.2727V20.25H10.6818C11.4697 18.1894 12.7424 16.5758 14.5 15.4091C16.2576 14.2273 18.4621 13.6364 21.1136 13.6364C23.5379 13.6364 25.6515 14.1667 27.4545 15.2273C29.2727 16.2727 30.6818 17.7803 31.6818 19.75C32.697 21.7045 33.197 24.0455 33.1818 26.7727V49H23.5V28.5C23.5152 26.3485 22.9697 24.6742 21.8636 23.4773C20.7727 22.2803 19.2424 21.6818 17.2727 21.6818C15.9545 21.6818 14.7879 21.9621 13.7727 22.5227C12.7727 23.0833 11.9848 23.9015 11.4091 24.9773C10.8485 26.0379 10.5606 27.3182 10.5455 28.8182ZM61.5266 24.0455L52.663 24.5909C52.5114 23.8333 52.1857 23.1515 51.6857 22.5455C51.1857 21.9242 50.5266 21.4318 49.7084 21.0682C48.9054 20.6894 47.9433 20.5 46.822 20.5C45.322 20.5 44.0569 20.8182 43.0266 21.4545C41.9963 22.0758 41.4811 22.9091 41.4811 23.9545C41.4811 24.7879 41.8145 25.4924 42.4811 26.0682C43.1478 26.6439 44.2917 27.1061 45.913 27.4545L52.2311 28.7273C55.6251 29.4242 58.1554 30.5455 59.822 32.0909C61.4887 33.6364 62.322 35.6667 62.322 38.1818C62.322 40.4697 61.6478 42.4773 60.2993 44.2045C58.966 45.9318 57.1327 47.2803 54.7993 48.25C52.4811 49.2045 49.8069 49.6818 46.7766 49.6818C42.1554 49.6818 38.4736 48.7197 35.7311 46.7955C33.0039 44.8561 31.4054 42.2197 30.9357 38.8864L40.4584 38.3864C40.7463 39.7955 41.4433 40.8712 42.5493 41.6136C43.6554 42.3409 45.072 42.7045 46.7993 42.7045C48.4963 42.7045 49.8599 42.3788 50.8902 41.7273C51.9357 41.0606 52.466 40.2045 52.4811 39.1591C52.466 38.2803 52.0948 37.5606 51.3675 37C50.6402 36.4242 49.519 35.9848 48.0039 35.6818L41.9584 34.4773C38.5493 33.7955 36.0114 32.6136 34.3448 30.9318C32.6933 29.25 31.8675 27.1061 31.8675 24.5C31.8675 22.2576 32.4736 20.3258 33.6857 18.7045C34.913 17.0833 36.6327 15.8333 38.8448 14.9545C41.072 14.0758 43.6781 13.6364 46.663 13.6364C51.072 13.6364 54.5417 14.5682 57.072 16.4318C59.6175 18.2955 61.1023 20.8333 61.5266 24.0455Z" fill="white"/>
<path d="M46.7476 10.2942C46.6241 9.24495 46.2972 8.22988 45.7851 7.30579C45.2732 6.37942 44.588 5.56004 43.7669 4.89221C42.9159 4.19811 41.9355 3.67996 40.8827 3.36785C39.4066 2.92657 37.8456 2.90023 36.3658 3.28957C36.0118 3.3827 35.6674 3.49827 35.3326 3.63628C35.1285 3.33716 34.904 3.05152 34.6592 2.77938C33.6359 1.64174 32.3166 0.807007 30.8406 0.365731C29.7777 0.0479754 28.6868 -0.056337 27.5929 0.0569597C26.5364 0.165132 25.5217 0.471714 24.5811 0.966796C23.6452 1.45715 22.8146 2.12639 22.1364 2.93658C21.4311 3.77925 20.9115 4.74266 20.5955 5.79957C20.2975 6.79659 20.1905 7.8964 20.2787 9.07414C20.353 10.0585 20.5641 11.1197 20.9073 12.2302C21.4517 13.9879 22.3455 15.9185 23.5594 17.9677C25.5708 21.3643 27.7925 23.9593 27.8878 24.0661L28.4613 24.7333C28.7157 25.0279 29.1199 25.1488 29.4943 25.0421L30.3399 24.7992C30.4791 24.7592 33.7566 23.8114 37.3052 22.077C39.4446 21.0304 41.2515 19.9071 42.6712 18.7366C43.5676 17.9967 44.3295 17.2264 44.9289 16.4434C45.649 15.5073 46.1632 14.5292 46.4613 13.5322C46.7803 12.4762 46.8747 11.3857 46.7476 10.2942V10.2942Z" fill="#FF1D32"/>
</svg>
